<svg xmlns="http://www.w3.org/2000/svg" width="15.612" height="11.559" viewBox="0 0 15.612 11.559">
  <g id="Group_4667" data-name="Group 4667" transform="translate(-30.694 -351.694)">
    <path id="Path" d="M.625-.306h13.75a.934.934,0,0,1,.931.935v9.689a.934.934,0,0,1-.931.935H.625a.934.934,0,0,1-.931-.935V.629A.934.934,0,0,1,.625-.306ZM14.375,10.64a.321.321,0,0,0,.319-.322V.629a.321.321,0,0,0-.319-.322H.625A.321.321,0,0,0,.306.629v9.689a.321.321,0,0,0,.319.322Z" transform="translate(31 352)" fill="#000"/>
    <path id="Rectangle" d="M0-.306H15A.306.306,0,0,1,15.306,0V1.97A.306.306,0,0,1,15,2.276H0A.306.306,0,0,1-.306,1.97V0A.306.306,0,0,1,0-.306ZM14.694.306H.306V1.664H14.694Z" transform="translate(31 354.043)" fill="#000"/>
    <path id="Path-2" data-name="Path" d="M1.183-.306a1.5,1.5,0,0,1,0,2.991,1.5,1.5,0,0,1,0-2.991Zm0,2.379a.883.883,0,1,0-.877-.883A.879.879,0,0,0,1.183,2.073Z" transform="translate(41.714 358.29)" fill="#000"/>
    <path id="Path-3" data-name="Path" d="M1.183-.306A1.476,1.476,0,0,1,2.316.231a.306.306,0,0,1,0,.393.867.867,0,0,0,0,1.132.306.306,0,0,1,0,.393,1.476,1.476,0,0,1-1.133.537,1.5,1.5,0,0,1,0-2.991Zm.5.776a.85.85,0,0,0-.5-.164.883.883,0,0,0,0,1.767.85.85,0,0,0,.5-.164,1.468,1.468,0,0,1,0-1.439Z" transform="translate(39.915 358.29)" fill="#000"/>
    <path id="Path-4" data-name="Path" d="M1.973.463H0A.306.306,0,0,1-.306.157.306.306,0,0,1,0-.149H1.973a.306.306,0,0,1,0,.612Z" transform="translate(32.924 358.645)" fill="#000"/>
    <path id="Path-5" data-name="Path" d="M4.118.463H0A.306.306,0,0,1-.306.157.306.306,0,0,1,0-.149H4.118a.306.306,0,1,1,0,.612Z" transform="translate(32.924 360)" fill="#000"/>
  </g>
</svg>
