<svg xmlns="http://www.w3.org/2000/svg" width="17.701" height="12.643" viewBox="0 0 17.701 12.643">
  <g id="Group_4582" data-name="Group 4582" transform="translate(0 -0.001)">
    <g id="Group_4579" data-name="Group 4579" transform="translate(0 0.001)">
      <path id="Path_43449" data-name="Path 43449" d="M1403.791,282.332h-15.172a1.266,1.266,0,0,1-1.265-1.264V270.953a1.266,1.266,0,0,1,1.265-1.264h15.172a1.266,1.266,0,0,1,1.264,1.264v10.115A1.266,1.266,0,0,1,1403.791,282.332Zm-15.172-11.8a.422.422,0,0,0-.421.421v10.115a.422.422,0,0,0,.421.422h15.172a.422.422,0,0,0,.421-.422V270.953a.422.422,0,0,0-.421-.421Z" transform="translate(-1387.354 -269.689)" fill="#000"/>
    </g>
    <g id="Group_4580" data-name="Group 4580" transform="translate(10.115 4.215)">
      <path id="Path_43450" data-name="Path 43450" d="M1426.978,287.252h-6.322a1.266,1.266,0,0,1-1.264-1.264V284.3a1.265,1.265,0,0,1,1.264-1.264h6.322Zm-6.322-3.372a.422.422,0,0,0-.422.421v1.686a.422.422,0,0,0,.422.421h5.479v-2.529Z" transform="translate(-1419.392 -283.038)" fill="#000"/>
    </g>
  </g>
</svg>
